<svg enable-background="new 0 0 187 58" height="58" viewBox="0 0 187 58" width="187" xmlns="http://www.w3.org/2000/svg"><path d="m77.391 14.805h5.812v24.229h-5.812z" fill="#5c6066"/><path d="m69.156 29.836c-2.422 0-5.329 0-7.75 0v9.199c-1.938 0-3.391 0-5.328 0 0-7.746 0-15.987 0-24.229h5.328v9.698h7.75c0-3.395 0-6.304 0-9.698h5.328v24.229c-1.938 0-3.391 0-5.328 0 0-2.906 0-6.295 0-9.199z" fill="#5c6066"/><path d="m112.266 39.033c-1.938 0-3.875 0-5.328 0 0-7.746 0-15.986 0-24.229h5.328v9.698h7.75c0-3.395 0-6.304 0-9.698h5.328v24.229c-1.938 0-3.391 0-5.328 0 0-2.904 0-6.293 0-9.197-2.906 0-5.328 0-7.75 0z" fill="#5c6066"/><path d="m103.125 15.331c-.271 1.648-.537 3.25-.807 4.883-1.008-.14-1.955-.318-2.909-.393-1.519-.121-3.042-.256-4.562-.229-2.048.037-3.388 1.321-3.468 3.389-.1 2.6-.126 5.21-.017 7.806.109 2.582 1.351 3.703 3.977 3.787.939.029 1.887-.113 2.825-.217.123-.014.312-.361.313-.5.023-1.281.014-2.568.014-4.021-1.033 0-2.213 0-3.18 0 0-.486 0-1.484 0-2.297 0-.817 0-1.582 0-2.552h8.719v.569c0 4.149.016 8.296.029 12.44 0 .396-.088.58-.498.684-3.102.789-6.238 1.08-9.433.857-1.509-.107-2.97-.377-4.353-1.014-2.289-1.055-3.522-2.908-3.861-5.336-.189-1.354-.212-2.738-.218-4.111-.01-2.398-.042-4.804.109-7.198.177-2.81 1.292-5.135 4.005-6.4 1.601-.746 3.319-.932 5.049-.94 2.621-.011 5.229.195 7.813.654.129.023.25.076.453.139z" fill="#5c6066"/><path d="m147.255 27.178c0 1.939.022 3.654-.008 5.492-.021 1.232-.239 2.418-.83 3.523-.899 1.68-2.416 2.535-4.178 2.951-2.913.689-5.859.697-8.761-.049-3.299-.848-4.843-2.795-5.004-6.33-.103-2.242-.043-4.497-.039-6.748.004-1.675-.045-3.354.074-5.021.235-3.278 1.823-5.158 5.035-5.951 3.098-.764 6.217-.766 9.292.145 2.58.764 4.122 2.72 4.32 5.408.081 1.092.085 2.219.102 3.314.017 1.08.003 2.296.003 3.266.001 0-.003 0-.006 0zm-5.634 0c-.006 0-.012 0-.018 0 0-1.728.062-3.459-.022-5.183-.06-1.223-.786-2.037-1.978-2.218-1.013-.156-2.078-.208-3.088-.072-1.615.22-2.375 1.026-2.426 2.677-.097 3.065-.107 6.136-.035 9.199.041 1.686.697 2.438 2.055 2.789 1.092.283 2.203.318 3.309.08 1.376-.299 2.09-.998 2.182-2.424.1-1.61.021-3.231.021-4.848z" fill="#ffc400"/><path d="m149.872 14.986c0-.008.371-.021.533-.021 3.012-.002 6.04-.045 9.05.021 1.212.026 2.463.16 3.629.478 2.328.637 3.576 2.33 3.841 4.676.226 1.996.275 4.007-.077 6.002-.516 2.911-3.023 5.277-5.976 5.539-1.403.125-2.715.092-4.125.125-.369.01-1.063.002-1.063.002v7.475c-1.938 0-3.875 0-5.812 0 0-8.228 0-16.216 0-24.297zm5.814 11.796c1.453 0 2.709.013 4.082-.004 1.018-.014 1.572-.503 1.657-1.524.099-1.182.097-2.376.05-3.561-.039-1.015-.621-1.54-1.654-1.602-1.147-.068-2.207-.064-3.357-.089-.288-.006-.775-.001-.775-.001-.003 2.301-.003 4.508-.003 6.781z" fill="#ffc400"/><path d="m168.943 38.908c.205-1.666.406-3.293.61-4.945 1.374.16 2.69.338 4.013.461 1.851.17 3.709.332 5.55-.057 1.167-.246 1.577-.844 1.521-2.021-.031-.639-.422-1.053-.918-1.301-1.421-.711-2.871-1.365-4.314-2.027-1.228-.562-2.485-1.062-3.688-1.676-1.335-.68-2.117-1.811-2.381-3.302-.259-1.464-.3-2.924.068-4.369.619-2.416 2.301-3.786 4.588-4.483 2.548-.776 5.162-.768 7.781-.5 1.178.121 2.349.321 3.521.489.144.021.279.081.458.132-.263 1.643-.521 3.261-.777 4.856-1.293-.163-2.519-.4-3.752-.449-1.645-.067-3.297-.035-4.941.047-.758.039-1.379.446-1.534 1.299-.156.86.175 1.546.928 1.908 1.431.689 2.905 1.287 4.36 1.927 1.335.587 2.693 1.129 3.994 1.786 1.025.517 1.626 1.443 1.892 2.56.388 1.629.463 3.285.114 4.914-.555 2.586-2.346 4.016-4.764 4.789-1.479.473-3.006.639-4.549.664-2.606.044-5.181-.243-7.78-.702z" fill="#ffc400"/><path d="m31.884 15.621.788-3.529 6.698-2.799-2.143 7.419-4.835 1.788.047.649 14.561 12.91v-29.054h-17.34z" fill="#ffc400"/><path d="m25.188 10.307.137-7.302h-11.245l6.456 8.372z" fill="#ffc400"/><path d="m42.298 38.629-6.166-1.084-7.583 1.551-8.184-2.059 3.561 2.731-1.53 11.283h24.604v-15.36z" fill="#ffc400"/><path d="m12.555 21.984-6.843-1.509-3.397-5.879 7.006-.634 4.288 4.158 1.184-3.759-5.214-10.825c-.186-.268-.288-.425-.337-.531h-9.242v48.046h.382z" fill="#ffc400"/><g fill="#5c6066"><path d="m29.54 37.609 2.824-.658-3.856-2.56-1.113.718z"/><path d="m28.255 37.49-1.827-1.877-1.407.785z"/><path d="m25.358 34.93 2.881-1.928-1.265-2.049-2.386-.631z"/><path d="m24.34 36.311-2.606-1.764.221 1.83z"/><path d="m24.213 34.729-.885-4.906-2.931-.337-.514 3.043z"/><path d="m21.307 35.98-.275-1.646-4.006-1.445-.612.869z"/><path d="m19.14 32.324.302-2.41-2.901-2.835.633 4.38z"/><path d="m16.555 31.959-1.867-6.831-.715 3.741 1.657 4.297z"/><path d="m13.083 29.684 1.72 5.181 3.334 2.483-2.372 1.937-3.761-3.728z"/><path d="m11.978 37.732 4.89 5.622-.009 5.021-2.728 1.584-3.631-10.412z"/><path d="m19.604 38.115-2.333 1.824.975 2.082.15 4.956 2.551-.012 1.083-5.555z"/><path d="m9.139 42.119 2.614 8.686-.548 4.3-3.205 1.241-2.227-3.166.436-4.758z"/><path d="m14.195 57.691.564-4.707 3.507-2.316 2.668.064-.912 4.543z"/></g><path d="m0 0h187v58.051h-187z" fill="none"/></svg>