<svg height="57" viewBox="0 0 330 57" width="330" xmlns="http://www.w3.org/2000/svg"><g fill="none" fill-rule="evenodd"><g fill="#13110c"><path d="m11.1174816.45463971-11.11727939 34.29613969h5.08102941l11.03437498-34.29613969z"/><path d="m23.2289265 26.1764816c1.1909926 0 2.1041544-.0853309 2.7390809-.2576103.6349264-.1722794.9527941-.5220956.9527941-1.0522794 0-.3433456-.0994853-.6353309-.2976471-.8735294-.1989706-.2377941-.4768015-.4424265-.833897-.6151103-.3570956-.1714706-.767978-.3372794-1.2302206-.4958088-.4634559-.1589338-.9471324-.3174633-1.4494118-.4768015-.7141912-.2111029-1.4421324-.4565809-2.1830147-.7340073-.7412868-.2778309-1.4154412-.6284559-2.0244853-1.051875-.6086397-.4230147-1.1109191-.9588603-1.5084559-1.6075368-.3967279-.6482721-.5948897-1.4623529-.5948897-2.4414338 0-.7938603.15125-1.5408089.4557721-2.2428677.304522-.7004412.7805147-1.3232353 1.4291911-1.8655514.6482721-.5423162 1.4748898-.9657353 2.4810662-1.2702574 1.0053677-.3037132 2.2093015-.4565809 3.6126103-.4565809 1.2164706 0 2.3480147.0934191 3.3934191.2782353 1.0454044.1852206 1.9512868.4501103 2.7192647.7934559l-.7542279 4.1282353c-.4505147-.1322427-1.1509559-.350625-2.10375-.6547427-.9527941-.3041176-2.0248897-.4565808-3.2154779-.4565808-1.2439706 0-2.0835295.1524632-2.5202942.4565808-.4367647.3041177-.655147.6288603-.655147.9726103 0 .2915809.0990809.5491912.297647.7740442.1985662.2252573.4630515.4302941.7942647.6151102.3304045.185625.7141912.3639706 1.1509559.5358456.4363603.1726839.9062868.3372794 1.4089706.4962133.7141912.2386029 1.4550735.5030882 2.2226471.7938603.7675735.2919853 1.4623529.6547426 2.0843382 1.0915073.6211765.4367647 1.1315441.9924265 1.5282721 1.6673897.3967279.6749633.5952941 1.5023897.5952941 2.4810662 0 .7679779-.1455882 1.4951103-.4367647 2.1834191-.2915809.6879044-.7736397 1.283603-1.448603 1.7858824-.6749632.5026838-1.5549632.9002206-2.64 1.1909926-1.0854411.2907721-2.4208088.4363603-4.0093382.4363603-1.6144118 0-2.9902206-.1852206-4.1278309-.5556618-1.1384191-.3700367-2.050772-.7004411-2.7390809-.9924264l.754228-4.088603c.9265073.37125 1.9116544.715 2.9574632 1.0324633 1.045.3174632 2.1098162.4759926 3.1952574.4759926"/><path d="m34.2568309 20.6987647c0-1.6406985.2507353-3.0824265.7542279-4.3268015.5022794-1.2431617 1.1638971-2.2825 1.9844486-3.1159926.820147-.8334927 1.7595955-1.4615441 2.8183455-1.8857721 1.0579412-.4230147 2.1433824-.6349264 3.2551103-.6349264 2.7516177 0 4.8424265.8140808 6.2716177 2.4414338 1.4291912 1.6277573 2.1433823 4.0028676 2.1433823 7.1253309 0 .3174632-.006875.6486764-.0198161.992022-.01375.3441544-.0335662.6223897-.0590442.8338971h-12.1072794c0 1.2176838.5022794 2.1769485 1.5084559 2.8777941 1.0057721.7016544 2.3023162 1.0514706 3.8900368 1.0514706.9786764 0 1.9116544-.1055515 2.7985294-.3174632.8864706-.2115074 1.6338235-.4230148 2.2424632-.6349265l.6749633 4.168272c-.8468383.2911765-1.7466545.5358456-2.6990442.7344118-.9527941.1981618-2.0244853.2972427-3.2150735.2972427-1.5885294 0-3.01125-.2050368-4.2677573-.6151103-1.2569118-.410478-2.328603-1.0187133-3.2150736-1.8259192-.886875-.8072058-1.5675-1.8065073-2.0443014-2.9970955-.4763971-1.1909927-.7141912-2.5801471-.7141912-4.1678677zm12.5036029-1.9452206c0-.501875-.0667279-.9855515-.1981617-1.4490073-.1330515-.4622427-.3445589-.8787868-.6357353-1.2500368-.2911765-.3700368-.6612133-.6680882-1.1109192-.8933456-.4505147-.2244485-1.0061764-.3376838-1.6673897-.3376838-.6353308 0-1.1849264.1067647-1.6475735.318272-.4630515.2119118-.8472426.5026839-1.1509559.8727206-.304522.37125-.5427206.7942647-.7141911 1.2706618-.1726839.4759926-.2851103.9665441-.3376839 1.4684191z"/><path d="m69.1281654 16.1736397c-.3174632-.0792647-.694375-.1589338-1.1311397-.2381985-.4363603-.0792647-.88-.1516544-1.3297058-.2183824-.4505148-.0655147-.8872795-.1124264-1.3102942-.1391176-.4234191-.0258824-.7809191-.039228-1.0716911-.039228-.6887133 0-1.3628677.0335662-2.0240809.0990809-.6620221.0659191-1.3369853.1920956-2.0244853.3769118v13.8535294h-4.9225v-17.4256985c1.2965441-.4763971 2.62625-.8597794 3.989522-1.1513603 1.3628677-.2907721 2.9574633-.4367647 4.7833824-.4367647.2636765 0 .6413971.01375 1.1307353.0396323.4897426.0270956 1.012647.0731985 1.5683088.1391177.5560662.0663235 1.1173897.1455882 1.6868015.2377941.5690073.0938235 1.0781617.2183823 1.528272.3773162z"/><path d="m79.1509853 29.8681949c-1.1909927-2.3548898-2.4018015-5.1137868-3.6324265-8.2762868-1.2302206-3.1620956-2.4009926-6.6222427-3.5127206-10.3800368h5.1202574c.2381985 1.0061765.5220956 2.0778677.8533088 3.2150736.3308088 1.1384191.6814338 2.2825 1.0522794 3.4334558.3700368 1.1513603.747353 2.2695589 1.1311397 3.3541912.3837868 1.0854412.747353 2.0778677 1.0915074 2.9776838.34375-.8998161.7275367-1.8922426 1.1509559-2.9776838.4230147-1.0846323.8403676-2.2028309 1.2508456-3.3541912.4100735-1.1509558.8068014-2.2950367 1.1909926-3.4334558.3829779-1.1372059.694375-2.2088971.9325735-3.2150736h4.961728c-1.111728 3.7577941-2.3419486 7.2179412-3.691875 10.3800368-1.3491177 3.1625-2.619375 5.921397-3.8099633 8.2762868z"/><path d="m91.4643529 20.6987647c0-1.6406985.2507353-3.0824265.754228-4.3268015.5022794-1.2431617 1.163897-2.2825 1.9844485-3.1159926.8201471-.8334927 1.7595956-1.4615441 2.8183456-1.8857721 1.0579412-.4230147 2.1433824-.6349264 3.25511-.6349264 2.751618 0 4.842427.8140808 6.271618 2.4414338 1.429191 1.6277573 2.143382 4.0028676 2.143382 7.1253309 0 .3174632-.00647.6486764-.019816.992022-.01375.3441544-.033566.6223897-.059448.8338971h-12.1068754c0 1.2176838.5022794 2.1769485 1.5084559 2.8777941 1.005772.7016544 2.3023165 1.0514706 3.8900365 1.0514706.978677 0 1.911655-.1055515 2.79853-.3174632.88647-.2115074 1.633823-.4230148 2.242463-.6349265l.674963 4.168272c-.846838.2911765-1.746654.5358456-2.699044.7344118-.952794.1981618-2.024485.2972427-3.215074.2972427-1.588529 0-3.0112495-.2050368-4.2677569-.6151103-1.2569117-.410478-2.3286029-1.0187133-3.2150735-1.8259192-.886875-.8072058-1.5675-1.8065073-2.0443015-2.9970955-.476397-1.1909927-.7141912-2.5801471-.7141912-4.1678677zm12.5036031-1.9452206c0-.501875-.066728-.9855515-.198162-1.4490073-.133051-.4622427-.344559-.8787868-.635735-1.2500368-.291177-.3700368-.661213-.6680882-1.110919-.8933456-.450515-.2244485-1.006177-.3376838-1.66739-.3376838-.6353309 0-1.1849265.1067647-1.6475735.318272-.4630515.2119118-.8472427.5026839-1.1509559.8727206-.3045221.37125-.5427206.7942647-.7141912 1.2706618-.1726838.4759926-.2851103.9665441-.3376838 1.4684191z"/><path d="m126.335688 16.1736397c-.317464-.0792647-.694375-.1589338-1.13114-.2381985-.43636-.0792647-.88-.1516544-1.329706-.2183824-.450515-.0655147-.887279-.1124264-1.310294-.1391176-.423419-.0258824-.780919-.039228-1.071691-.039228-.688714 0-1.362868.0335662-2.024081.0990809-.662022.0659191-1.336986.1920956-2.024486.3769118v13.8535294h-4.9225v-17.4256985c1.296545-.4763971 2.62625-.8597794 3.989523-1.1513603 1.362867-.2907721 2.957463-.4367647 4.783382-.4367647.263676 0 .641397.01375 1.130735.0396323.489743.0270956 1.012647.0731985 1.568309.1391177.556066.0663235 1.11739.1455882 1.686801.2377941.569008.0938235 1.078162.2183823 1.528273.3773162z"/><path d="m144.067485 29.0740919c-.079264.0537868-.25761.1459927-.535845.2782353-.277831.1326471-.641802.2713603-1.091508.4165441-.450514.1455883-.999301.2709559-1.647169.3769118-.649081.1055515-1.383492.1589338-2.203235.1589338-2.249338 0-3.890037-.6680882-4.922096-2.0042647-1.032058-1.3361765-1.548088-3.2878676-1.548088-5.8550735v-15.83797796h-5.160294v-4.049375h10.042757v20.24485296c0 1.2702573.250736 2.1304412.754228 2.580147.50228.4497059 1.137206.6741544 1.905184.6741544.978677 0 1.799228-.1314338 2.460846-.3967279.661617-.2636765 1.097978-.4367647 1.310294-.515625z"/><path d="m145.607768 20.6987647c0-1.6406985.250736-3.0824265.754228-4.3268015.50228-1.2431617 1.163897-2.2825 1.984449-3.1159926.820147-.8334927 1.759595-1.4615441 2.818345-1.8857721 1.057942-.4230147 2.143383-.6349264 3.255111-.6349264 2.751617 0 4.842426.8140808 6.271617 2.4414338 1.429192 1.6277573 2.143383 4.0028676 2.143383 7.1253309 0 .3174632-.006471.6486764-.019816.992022-.01375.3441544-.033567.6223897-.059449.8338971h-12.106875c0 1.2176838.502279 2.1769485 1.508456 2.8777941 1.005772.7016544 2.302316 1.0514706 3.890037 1.0514706.978676 0 1.911654-.1055515 2.798529-.3174632.886471-.2115074 1.633824-.4230148 2.242463-.6349265l.674964 4.168272c-.846839.2911765-1.746655.5358456-2.699045.7344118-.952794.1981618-2.024485.2972427-3.215073.2972427-1.588529 0-3.01125-.2050368-4.267757-.6151103-1.256912-.410478-2.328603-1.0187133-3.215074-1.8259192-.886875-.8072058-1.5675-1.8065073-2.044301-2.9970955-.476397-1.1909927-.714192-2.5801471-.714192-4.1678677zm12.503603-1.9452206c0-.501875-.066323-.9855515-.198161-1.4490073-.133052-.4622427-.344155-.8787868-.635736-1.2500368-.291176-.3700368-.661213-.6680882-1.110919-.8933456-.450515-.2244485-1.006176-.3376838-1.66739-.3376838-.63533 0-1.184522.1067647-1.647573.318272-.463052.2119118-.847243.5026839-1.150956.8727206-.304522.37125-.542721.7942647-.714191 1.2706618-.172684.4759926-.28511.9665441-.337684 1.4684191z"/><path d="m172.306103 26.1764816c1.191397 0 2.104559-.0853309 2.73989-.2576103.634926-.1722794.951985-.5220956.951985-1.0522794 0-.3433456-.099485-.6353309-.297647-.8735294-.198566-.2377941-.476802-.4424265-.833493-.6151103-.356691-.1714706-.768382-.3372794-1.23022-.4958088-.463861-.1589338-.947537-.3174633-1.449008-.4768015-.715-.2111029-1.442132-.4565809-2.183419-.7340073-.740882-.2778309-1.41625-.6284559-2.02489-1.051875-.608639-.4230147-1.110514-.9588603-1.508455-1.6075368-.396728-.6482721-.59489-1.4623529-.59489-2.4414338 0-.7938603.151654-1.5408089.455772-2.2428677.304522-.7004412.780919-1.3232353 1.43-1.8655514.647463-.5423162 1.474081-.9657353 2.480662-1.2702574 1.005772-.3037132 2.209706-.4565809 3.611801-.4565809 1.216875 0 2.348824.0934191 3.394228.2782353 1.045809.1852206 1.950882.4501103 2.719265.7934559l-.754633 4.1282353c-.450514-.1322427-1.150551-.350625-2.10375-.6547427-.953198-.3041176-2.024889-.4565808-3.215073-.4565808-1.243971 0-2.083934.1524632-2.520699.4565808-.436764.3041177-.654338.6288603-.654338.9726103 0 .2915809.099081.5491912.297243.7740442.198566.2252573.463051.4302941.79386.6151102.330405.185625.714596.3639706 1.15136.5358456.436765.1726839.906287.3372794 1.409375.4962133.713383.2386029 1.45467.5030882 2.221839.7938603.767573.2919853 1.462757.6547426 2.084338 1.0915073.621176.4367647 1.131948.9924265 1.528676 1.6673897.396728.6749633.595294 1.5023897.595294 2.4810662 0 .7679779-.145992 1.4951103-.436764 2.1834191-.291581.6879044-.774044 1.283603-1.449008 1.7858824-.674963.5026838-1.554963.9002206-2.639595 1.1909926-1.085037.2907721-2.421618.4363603-4.009743.4363603-1.614412 0-2.99022-.1852206-4.127022-.5556618-1.139228-.3700367-2.051581-.7004411-2.73989-.9924264l.754228-4.088603c.926508.37125 1.91125.715 2.958272 1.0324633 1.044192.3174632 2.109008.4759926 3.194449.4759926"/><path d="m190.537835 26.1764816c1.191397 0 2.104558-.0853309 2.739889-.2576103.634927-.1722794.951986-.5220956.951986-1.0522794 0-.3433456-.099486-.6353309-.297647-.8735294-.198567-.2377941-.476802-.4424265-.833493-.6151103-.356691-.1714706-.768382-.3372794-1.230221-.4958088-.46386-.1589338-.947536-.3174633-1.449007-.4768015-.715-.2111029-1.442132-.4565809-2.183419-.7340073-.741287-.2778309-1.415846-.6284559-2.02489-1.051875-.60864-.4230147-1.110515-.9588603-1.508456-1.6075368-.396728-.6482721-.594889-1.4623529-.594889-2.4414338 0-.7938603.151654-1.5408089.455772-2.2428677.304522-.7004412.780919-1.3232353 1.43-1.8655514.647463-.5423162 1.47408-.9657353 2.480661-1.2702574 1.005772-.3037132 2.209706-.4565809 3.612206-.4565809 1.216471 0 2.348419.0934191 3.393824.2782353 1.045809.1852206 1.950882.4501103 2.719264.7934559l-.754632 4.1282353c-.450515-.1322427-1.150551-.350625-2.10375-.6547427-.952794-.3041176-2.02489-.4565808-3.215073-.4565808-1.243971 0-2.083934.1524632-2.520699.4565808-.436765.3041177-.654338.6288603-.654338.9726103 0 .2915809.099081.5491912.297647.7740442.198162.2252573.462647.4302941.793456.6151102.330404.185625.714595.3639706 1.15136.5358456.436765.1726839.906287.3372794 1.409375.4962133.713382.2386029 1.454669.5030882 2.221838.7938603.767574.2919853 1.462758.6547426 2.084339 1.0915073.621176.4367647 1.131948.9924265 1.528676 1.6673897.397132.6749633.595294 1.5023897.595294 2.4810662 0 .7679779-.145993 1.4951103-.436765 2.1834191-.29158.6879044-.774044 1.283603-1.449007 1.7858824-.674963.5026838-1.554963.9002206-2.639191 1.1909926-1.085441.2907721-2.421618.4363603-4.010147.4363603-1.614412 0-2.990221-.1852206-4.127022-.5556618-1.139228-.3700367-2.051177-.7004411-2.73989-.9924264l.755037-4.088603c.925698.37125 1.910845.715 2.957463 1.0324633 1.044191.3174632 2.109007.4759926 3.194449.4759926"/><path d="m205.650217 34.7508199h-5.080221l11.11728-34.29613975h4.998125z"/></g><g fill="#19b1a3"><path d="m241.896026 10.9820037h-3.955147v13.6315073h3.955147c4.315478 0 6.831728-3.1058823 6.831728-6.799375 0-3.8576838-2.353272-6.8321323-6.831728-6.8321323"/><path d="m261.145904 20.9194118h7.224817l-3.595625-10.003125z"/><path d="m224.413386.00020221-10.094926 35.02448529h105.511838l10.094926-35.02448529zm17.482721 28.69948529h-8.597794v-21.80386029h8.597794c6.831323 0 11.572242 4.34742649 11.572242 10.91830879 0 6.5708824-4.740919 10.8855515-11.572242 10.8855515zm29.122095 0-1.372573-3.7598162h-9.741471l-1.373787 3.7598162h-5.098419l8.433199-21.80386029h5.819485l8.400441 21.80386029zm15.201434 0h-4.642647v-8.9245588l-8.400441-12.87930149h5.294559l5.427206 8.76077209 5.360882-8.76077209h5.295772l-8.335331 12.87930149zm17.174559.3922794c-4.184044 0-7.191655-1.4061397-9.251728-3.465l2.550221-3.5305147c1.535955 1.6014706 3.921985 2.9416912 6.929595 2.9416912 2.550625 0 3.792169-1.2091912 3.792169-2.4511397 0-1.6346324-1.895882-2.1902941-4.412132-2.7787133-3.564081-.8173161-8.140809-1.7980147-8.140809-6.6691544 0-3.62838232 3.139044-6.57047791 8.270625-6.57047791 3.465 0 6.34239 1.04580882 8.499522 3.03996323l-2.582169 3.39988968c-1.764853-1.6342279-4.119338-2.3860294-6.244522-2.3860294-2.092022 0-3.202537.9151838-3.202537 2.2226471 0 1.47125 1.829963 1.9290441 4.347427 2.5174632 3.595625.8165074 8.172353 1.8958824 8.172353 6.7338603 0 3.9883088-2.843824 6.9955147-8.728015 6.9955147z"/></g><path d="m193.78607 36.1925074h-8.173566c-.645441 0-1.167537-.5229045-1.167537-1.1675368 0-.6446324.522096-1.1675368 1.167537-1.1675368h8.173566c.645441 0 1.167537.5229044 1.167537 1.1675368 0 .6446323-.522096 1.1675368-1.167537 1.1675368m-15.177574 0h-8.173566c-.645037 0-1.167132-.5229045-1.167132-1.1675368 0-.6446324.522095-1.1675368 1.167132-1.1675368h8.173566c.645442 0 1.167537.5229044 1.167537 1.1675368 0 .6446323-.522095 1.1675368-1.167537 1.1675368m-15.177573 0h-8.172758c-.644632 0-1.167132-.5229045-1.167132-1.1675368 0-.6446324.5225-1.1675368 1.167132-1.1675368h8.172758c.644632 0 1.167132.5229044 1.167132 1.1675368 0 .6446323-.5225 1.1675368-1.167132 1.1675368m-15.177574 0h-8.172353c-.644632 0-1.167536-.5229045-1.167536-1.1675368 0-.6446324.522904-1.1675368 1.167536-1.1675368h8.172353c.644633 0 1.167537.5229044 1.167537 1.1675368 0 .6446323-.522904 1.1675368-1.167537 1.1675368m-15.177169 0h-8.172353c-.645037 0-1.167537-.5229045-1.167537-1.1675368 0-.6446324.5225-1.1675368 1.167537-1.1675368h8.172353c.644633 0 1.167537.5229044 1.167537 1.1675368 0 .6446323-.522904 1.1675368-1.167537 1.1675368m-15.177573 0h-8.172353c-.644633 0-1.167537-.5229045-1.167537-1.1675368 0-.6446324.522904-1.1675368 1.167537-1.1675368h8.172353c.645036 0 1.167536.5229044 1.167536 1.1675368 0 .6446323-.5225 1.1675368-1.167536 1.1675368m-15.177169 0h-8.1723534c-.6450368 0-1.1675368-.5229045-1.1675368-1.1675368 0-.6446324.5225-1.1675368 1.1675368-1.1675368h8.1723534c.644632 0 1.167536.5229044 1.167536 1.1675368 0 .6446323-.522904 1.1675368-1.167536 1.1675368m-15.177574 0h-8.172353c-.6446323 0-1.1675367-.5229045-1.1675367-1.1675368 0-.6446324.5229044-1.1675368 1.1675367-1.1675368h8.172353c.6450367 0 1.1675367.5229044 1.1675367 1.1675368 0 .6446323-.5225 1.1675368-1.1675367 1.1675368m-15.1771691 0h-8.172353c-.6450368 0-1.1675368-.5229045-1.1675368-1.1675368 0-.6446324.5225-1.1675368 1.1675368-1.1675368h8.172353c.6446323 0 1.1675367.5229044 1.1675367 1.1675368 0 .6446323-.5229044 1.1675368-1.1675367 1.1675368m-15.1775736 0h-8.1723529c-.6446324 0-1.1675368-.5229045-1.1675368-1.1675368 0-.6446324.5229044-1.1675368 1.1675368-1.1675368h8.1723529c.6450368 0 1.1675368.5229044 1.1675368 1.1675368 0 .6446323-.5225 1.1675368-1.1675368 1.1675368m-15.1771691 0h-8.1723529c-.6450368 0-1.1675368-.5229045-1.1675368-1.1675368 0-.6446324.5225-1.1675368 1.1675368-1.1675368h8.1723529c.6446324 0 1.1675368.5229044 1.1675368 1.1675368 0 .6446323-.5229044 1.1675368-1.1675368 1.1675368m-15.1775735 0h-8.172353c-.6446323 0-1.1675367-.5229045-1.1675367-1.1675368 0-.6446324.5229044-1.1675368 1.1675367-1.1675368h8.172353c.6450367 0 1.1675367.5229044 1.1675367 1.1675368 0 .6446323-.5225 1.1675368-1.1675367 1.1675368" fill="#13110c"/></g><g fill="#cc171a"><path d="m219.56533 41.317272q.336.616.76533 1.530667.448.896.91467 1.96.48533 1.045333.952 2.146667.46667 1.101333.87733 2.072.41067-.970667.87734-2.072.46666-1.101334.93333-2.146667.48533-1.064.91467-1.96.448-.914667.784-1.530667h2.65066q.18667 1.288.336 2.893334.168 1.586666.28 3.322667.13067 1.717333.224 3.453333.112 1.736.18667 3.266667h-2.83733q-.056-1.885333-.14934-4.106667-.0933-2.221333-.28-4.48-.336.784-.74666 1.736-.41067.952-.82134 1.904-.392.952-.76533 1.829333-.37333.858667-.63467 1.474667h-2.03466q-.26134-.616-.63467-1.474667-.37333-.877333-.784-1.829333-.392-.952-.80267-1.904-.41066-.952-.74666-1.736-.18667 2.258667-.28 4.48-.0933 2.221334-.14934 4.106667h-2.83733q.0747-1.530667.168-3.266667.112-1.736.224-3.453333.13067-1.736001.28-3.322667.168-1.605334.35467-2.893334z"/><path d="m235.10971 54.253273h-2.78134v-9.818667h2.78134zm.26133-12.656001q0 .765334-.504 1.213334-.48533.429333-1.15733.429333-.672 0-1.176-.429333-.48534-.448-.48534-1.213334 0-.765333.48534-1.194667.504-.448 1.176-.448.672 0 1.15733.448.504.429334.504 1.194667z"/><path d="m241.29421 54.43994q-1.21334-.01867-1.97867-.261334-.74667-.242666-1.19467-.672-.42933-.448-.59733-1.064-.14933-.634666-.14933-1.418667v-10.808l2.78133-.448v10.696q0 .373334.056.672.056.298667.20533.504.168.205334.46667.336001.29867.130666.80267.168z"/><path d="m246.97412 52.31194q.41067 0 .784-.01867.37334-.01867.59734-.056v-2.109334q-.168-.03733-.504-.07467-.336-.03733-.616-.03733-.392 0-.74667.056-.336.03733-.59733.168-.26134.130667-.41067.354667-.14933.224-.14933.56 0 .653334.42933.914667.448.242667 1.21333.242667zm-.224-8.138668q1.232 0 2.05334.28.82133.28 1.30666.802667.504.522667.70934 1.269333.20533.746667.20533 1.661334v5.786667q-.59733.130667-1.66133.298667-1.064.186666-2.576.186666-.952 0-1.736-.168-.76534-.168-1.32534-.541333-.56-.392-.85866-1.008-.29867-.616-.29867-1.512 0-.858667.336-1.456.35467-.597334.93333-.952.57867-.354667 1.32534-.504.74666-.168 1.54933-.168.54133 0 .952.056.42933.03733.69067.112v-.261334q0-.709333-.42934-1.138666-.42933-.429334-1.49333-.429334-.70933 0-1.4.112-.69067.09333-1.19467.28l-.35466-2.24q.24266-.07467.59733-.149333.37333-.09333.80267-.149334.42933-.07467.896-.112.48533-.056.97066-.056z"/><path d="m253.18983 44.770606q.70934-.205334 1.82934-.373334 1.12-.186666 2.352-.186666 1.25066 0 2.072.336.84.317333 1.32533.914666.48533.597334.69067 1.418667.20533.821334.20533 1.829334v5.544h-2.78133v-5.208q0-1.344-.35467-1.904-.35467-.560001-1.32533-.560001-.29867 0-.63467.03733-.336.01867-.59733.056v7.578667h-2.78134z"/><path d="m273.03425 49.325273q0 1.157333-.336 2.128-.336.952-.97067 1.642667-.63466.672-1.53066 1.045333-.87734.373333-1.97867.373333-1.08267 0-1.97867-.373333-.87733-.373333-1.512-1.045333-.63466-.690667-.98933-1.642667-.35467-.970667-.35467-2.128 0-1.157334.35467-2.109334.37333-.952 1.008-1.624.65333-.672 1.53067-1.045333.896-.373334 1.94133-.373334 1.064 0 1.94133.373334.896.373333 1.53067 1.045333.63467.672.98933 1.624.35467.952.35467 2.109334zm-2.83733 0q0-1.288-.52267-2.016-.504-.746667-1.456-.746667-.952 0-1.47467.746667-.52266.728-.52266 2.016 0 1.288.52266 2.053333.52267.746667 1.47467.746667.952 0 1.456-.746667.52267-.765333.52267-2.053333z"/><path d="m286.92517 44.714606q0 .709333-.28 1.362666-.28.653334-.728 1.269334-.448.597333-1.008 1.157333-.56.56-1.10134 1.064-.28.261334-.616.597334-.31733.317333-.616.653333-.29866.336-.54133.634667-.224.28-.28.466667h5.56267v2.333333h-8.624q-.0373-.205333-.0373-.522667 0-.317333 0-.448 0-.896.28-1.642667.29867-.746666.76534-1.381333.46666-.653333 1.04533-1.213333.59733-.56 1.176-1.12.448-.429334.84-.802667.392-.392.69067-.746667.29866-.373333.46666-.728.168-.373333.168-.746667 0-.821333-.46666-1.157333-.46667-.336-1.15734-.336-.504 0-.952.168-.42933.149333-.80266.373333-.35467.205334-.616.429334-.26134.205333-.392.336l-1.38134-1.941334q.82134-.765333 1.904-1.250667 1.10134-.504 2.352-.504 1.13867 0 1.96.261334.82134.261333 1.344.746667.54134.466666.784 1.157333.26134.672.26134 1.530667z"/><path d="m297.89387 47.757273q0 3.266666-1.25066 5.021333-1.232 1.736-3.416 1.736-2.184 0-3.43467-1.736-1.232-1.754667-1.232-5.021333 0-1.624001.31733-2.874667.336-1.250667.952-2.109334.616-.858666 1.47467-1.306667.85867-.448 1.92267-.448 2.184 0 3.416 1.754667 1.25066 1.736 1.25066 4.984001zm-2.83733 0q0-.970667-.0933-1.754667-.0933-.802667-.29867-1.381334-.20533-.578666-.56-.896-.35467-.317333-.87733-.317333-.52267 0-.87734.317333-.336.317334-.56.896-.20533.578667-.29866 1.381334-.0933.784-.0933 1.754667 0 .970666.0933 1.773333.0933.802667.29866 1.381333.224.578667.56.896001.35467.317333.87734.317333.52266 0 .87733-.317333.35467-.317334.56-.896001.20533-.578666.29867-1.381333.0933-.802667.0933-1.773333z"/><path d="m299.49192 44.005272q.54133-.224 1.12-.504.59733-.298666 1.15733-.634666.56-.354667 1.064-.728.52267-.392001.93333-.821334h1.94134v12.936001h-2.78134v-9.314667q-.56.373333-1.25066.690666-.69067.298667-1.344.522667z"/><path d="m313.83929 47.309273q.42934 0 .896-.07467.46667-.09333.69067-.242667v-.168q0-.07467 0-.149333.0187-.07467.0187-.130667-.0187-.672-.112-1.250667-.0933-.597333-.31734-1.026666-.224-.448-.616-.690667-.37333-.261333-.93333-.261333-.448 0-.784.186666-.336.186667-.54133.485334-.20534.298666-.31734.653333-.0933.354667-.0933.690667 0 1.008.48533 1.493333.504.485334 1.624.485334zm1.36267 1.810666q-.392.186667-.87733.28-.46667.07467-.80267.07467-1.21333 0-2.072-.28-.85867-.298667-1.41867-.821333-.54133-.541334-.80266-1.288-.26134-.746667-.26134-1.642667 0-.746667.24267-1.530667.26133-.784.80267-1.418667.54133-.653333 1.36266-1.064.84-.429333 2.016-.429333 2.408 0 3.62134 1.493333 1.232 1.474667 1.232 4.256 0 1.829334-.48534 3.229334-.46666 1.4-1.47466 2.352-.98934.952-2.53867 1.456-1.54933.485334-3.67733.504-.0187-.597333-.056-1.157333-.0373-.56-.0747-1.157333 1.064-.01867 1.92267-.149334.85866-.149333 1.512-.466667.65333-.336 1.10133-.877333.46667-.541333.728-1.362667z"/></g></svg>